# xmcd
#
# Track frame offsets: 
#        150
#        15808
#        31990
#        48988
#        66655
#        79089
#        95118
#        111280
#        127607
#        151628
#        172249
#        183066
#        225495
#
# Disc length: 3275 seconds
#
# Revision: 0
# Processed by: cddbd v1.5.2PL0 Copyright (c) Steve Scherf et al.
# Submitted via: ExactAudioCopy v0.99pb5
#
DISCID=960cc90d
DTITLE=Eric Bibb - Diamond Days
DYEAR=2006
DGENRE=Blues
TTITLE0=Tall Cotton
TTITLE1=Destiny Blues
TTITLE2=Shine On
TTITLE3=So Glad
TTITLE4=Storybook Hero
TTITLE5=Diamond Days
TTITLE6=Dr shine
TTITLE7=Heading Home
TTITLE8=In My Father's House (Live)
TTITLE9=Forgiveness Is Gold
TTITLE10=Buckets Of Rain
TTITLE11=Still Livin' On
TTITLE12=No Title
EXTD=
EXTT0=
EXTT1=
EXTT2=
EXTT3=
EXTT4=
EXTT5=
EXTT6=
EXTT7=
EXTT8=
EXTT9=
EXTT10=
EXTT11=
EXTT12=
PLAYORDER=
